<svg xmlns="http://www.w3.org/2000/svg" width="10" height="17" viewBox="0 0 10 17">
  <metadata><?xpacket begin="﻿" id="W5M0MpCehiHzreSzNTczkc9d"?>
<x:xmpmeta xmlns:x="adobe:ns:meta/" x:xmptk="Adobe XMP Core 5.6-c142 79.160924, 2017/07/13-01:06:39        ">
   <rdf:RDF xmlns:rdf="http://www.w3.org/1999/02/22-rdf-syntax-ns#">
      <rdf:Description rdf:about=""/>
   </rdf:RDF>
</x:xmpmeta>
                                                                                                    
                                                                                                    
                                                                                                    
                                                                                                    
                                                                                                    
                                                                                                    
                                                                                                    
                                                                                                    
                                                                                                    
                                                                                                    
                                                                                                    
                                                                                                    
                                                                                                    
                                                                                                    
                                                                                                    
                                                                                                    
                                                                                                    
                                                                                                    
                                                                                                    
                                                                                                    
                           
<?xpacket end="w"?></metadata>
<defs>
    <style>
      .cls-1 {
        fill: #fff;
        fill-rule: evenodd;
      }
    </style>
  </defs>
  <path id="Forma_1" data-name="Forma 1" class="cls-1" d="M9.623,0l-2.4,0C4.53,0,2.789,1.642,2.789,4.184V6.113H0.377A0.363,0.363,0,0,0,0,6.459V9.254A0.363,0.363,0,0,0,.377,9.6H2.789v7.053A0.363,0.363,0,0,0,3.166,17H6.312a0.363,0.363,0,0,0,.377-0.347V9.6h2.82a0.363,0.363,0,0,0,.377-0.347V6.459a0.334,0.334,0,0,0-.11-0.245,0.4,0.4,0,0,0-.267-0.1H6.69V4.477c0-.786.2-1.185,1.317-1.185H9.623A0.363,0.363,0,0,0,10,2.945V0.35A0.363,0.363,0,0,0,9.623,0Z"/>
</svg>
