<svg xmlns="http://www.w3.org/2000/svg" width="18" height="18" viewBox="0 0 18 18">
  <metadata><?xpacket begin="﻿" id="W5M0MpCehiHzreSzNTczkc9d"?>
<x:xmpmeta xmlns:x="adobe:ns:meta/" x:xmptk="Adobe XMP Core 5.6-c142 79.160924, 2017/07/13-01:06:39        ">
   <rdf:RDF xmlns:rdf="http://www.w3.org/1999/02/22-rdf-syntax-ns#">
      <rdf:Description rdf:about=""/>
   </rdf:RDF>
</x:xmpmeta>
                                                                                                    
                                                                                                    
                                                                                                    
                                                                                                    
                                                                                                    
                                                                                                    
                                                                                                    
                                                                                                    
                                                                                                    
                                                                                                    
                                                                                                    
                                                                                                    
                                                                                                    
                                                                                                    
                                                                                                    
                                                                                                    
                                                                                                    
                                                                                                    
                                                                                                    
                                                                                                    
                           
<?xpacket end="w"?></metadata>
<defs>
    <style>
      .cls-1 {
        fill: #fff;
        fill-rule: evenodd;
      }
    </style>
  </defs>
  <path id="Forma_1" data-name="Forma 1" class="cls-1" d="M4.08,13.914a2.367,2.367,0,0,1,0,3.365h0a2.392,2.392,0,0,1-3.379,0,2.37,2.37,0,0,1,0-3.366h0A2.388,2.388,0,0,1,4.08,13.914Zm0,0h0ZM0.7,17.28h0ZM0,6.121V9.558a8.383,8.383,0,0,1,5.954,2.473,8.4,8.4,0,0,1,2.469,5.963h0V18h3.451A11.851,11.851,0,0,0,8.393,9.607,11.837,11.837,0,0,0,0,6.121ZM0.008,0V3.435A14.581,14.581,0,0,1,14.555,18H18A17.952,17.952,0,0,0,12.722,5.281,17.936,17.936,0,0,0,.008,0Z"/>
</svg>
