<svg xmlns="http://www.w3.org/2000/svg" width="18" height="15" viewBox="0 0 18 15">
  <metadata><?xpacket begin="﻿" id="W5M0MpCehiHzreSzNTczkc9d"?>
<x:xmpmeta xmlns:x="adobe:ns:meta/" x:xmptk="Adobe XMP Core 5.6-c142 79.160924, 2017/07/13-01:06:39        ">
   <rdf:RDF xmlns:rdf="http://www.w3.org/1999/02/22-rdf-syntax-ns#">
      <rdf:Description rdf:about=""/>
   </rdf:RDF>
</x:xmpmeta>
                                                                                                    
                                                                                                    
                                                                                                    
                                                                                                    
                                                                                                    
                                                                                                    
                                                                                                    
                                                                                                    
                                                                                                    
                                                                                                    
                                                                                                    
                                                                                                    
                                                                                                    
                                                                                                    
                                                                                                    
                                                                                                    
                                                                                                    
                                                                                                    
                                                                                                    
                                                                                                    
                           
<?xpacket end="w"?></metadata>
<defs>
    <style>
      .cls-1 {
        fill: #fff;
        fill-rule: evenodd;
      }
    </style>
  </defs>
  <path id="Forma_1" data-name="Forma 1" class="cls-1" d="M17.5,0.277a7.317,7.317,0,0,1-2.346.919A3.639,3.639,0,0,0,12.463,0,3.741,3.741,0,0,0,8.769,3.787a3.908,3.908,0,0,0,.1.863A10.4,10.4,0,0,1,1.254.692a3.836,3.836,0,0,0-.5,1.9A3.812,3.812,0,0,0,2.4,5.748,3.62,3.62,0,0,1,.724,5.273V5.32A3.769,3.769,0,0,0,3.686,9.035,3.594,3.594,0,0,1,2.018,9.1,3.712,3.712,0,0,0,5.467,11.73,7.293,7.293,0,0,1,.881,13.35,7.579,7.579,0,0,1,0,13.3,10.269,10.269,0,0,0,5.661,15c6.792,0,10.506-5.772,10.506-10.777l-0.012-.491A7.54,7.54,0,0,0,18,1.775a7.24,7.24,0,0,1-2.12.6A3.793,3.793,0,0,0,17.5.277Z"/>
</svg>
